<?xml version="1.0" encoding="UTF-8"?>
<svg id="Layer_1" data-name="Layer 1" xmlns="http://www.w3.org/2000/svg" viewBox="0 0 500 500">
  <defs>
    <style>
      .cls-1 {
        fill: #435daa;
        fill-rule: evenodd;
      }
    </style>
  </defs>
  <path class="cls-1" d="M127.82,163.43c0-6.2,5.03-11.22,11.23-11.22,0,0,0,0,0,0h235.64c6.2,0,11.22,5.02,11.22,11.22s-5.02,11.22-11.22,11.22h-235.64c-6.2,0-11.23-5.01-11.24-11.21,0,0,0,0,0,0h0ZM127.82,223.81c0-6.2,5.03-11.22,11.23-11.22,0,0,0,0,.01,0h235.64c6.2,0,11.22,5.02,11.22,11.22s-5.02,11.22-11.22,11.22h-235.64c-6.2,0-11.23-5.01-11.24-11.21,0,0,0,0,0,0h0ZM127.82,284.2c0-6.2,5.04-11.22,11.24-11.22h235.65c6.2,0,11.22,5.02,11.22,11.22s-5.02,11.22-11.22,11.22h-235.64c-6.2,0-11.24-5.01-11.24-11.21,0,0,0,0,0,0h0ZM127.82,344.58c0-6.2,5.03-11.22,11.23-11.22h235.65c6.2,0,11.22,5.02,11.22,11.22s-5.02,11.22-11.22,11.22h-235.64c-6.2.01-11.23-5.01-11.24-11.21,0,0,0,0,0-.01h0ZM385.96,404.96c0,6.2-5.03,11.22-11.23,11.22h-79.03c-6.2,0-11.22-5.02-11.22-11.22s5.02-11.22,11.22-11.22h79.02c6.2-.01,11.23,5,11.24,11.2,0,0,0,.01,0,.02ZM95.54,458.72c.01,6.71,5.46,12.15,12.17,12.15h298.35c6.71,0,12.16-5.44,12.17-12.15V143.09h-94.76c-6.19,0-11.2-5.03-11.2-11.22v-17.61h-173.21c-6.2,0-11.22-5.02-11.22-11.22s5.02-11.22,11.22-11.22h173.21v-54.7H107.72c-6.71,0-12.16,5.44-12.17,12.15v409.44ZM406.06,493.31c19.1-.01,34.59-15.49,34.62-34.59V138.7c.07-9.42-3.78-18.45-10.62-24.92l-92.91-89.42c-6.41-6.26-15.03-9.74-23.99-9.67H107.72c-19.1.01-34.59,15.49-34.61,34.59v409.44c.03,19.1,15.51,34.58,34.61,34.59h298.34Z"/>
</svg>