<?xml version="1.0" encoding="UTF-8"?>
<svg id="Layer_1" data-name="Layer 1" xmlns="http://www.w3.org/2000/svg" viewBox="0 0 500 500">
  <defs>
    <style>
      .cls-1 {
        fill: #435daa;
      }
    </style>
  </defs>
  <path class="cls-1" d="M462.88,44.35h-173.73v-15.79c0-8.72-7.07-15.79-15.79-15.79h-47.38c-8.72,0-15.79,7.07-15.79,15.79v15.79H36.45c-13.08,0-23.69,10.61-23.69,23.69v268.5c0,13.08,10.61,23.69,23.69,23.69h173.73v15.79h-27.05c-5.61.01-10.8,2.99-13.64,7.83l-46.06,78.97c-2.85,4.88-2.87,10.92-.06,15.82s8.04,7.93,13.69,7.93h225.2c5.66,0,10.88-3.03,13.69-7.93,2.82-4.9,2.79-10.94-.06-15.82l-46.05-78.97c-2.84-4.84-8.03-7.82-13.65-7.83h-27.05v-15.79h173.73c13.08,0,23.69-10.61,23.69-23.69V68.04c0-13.08-10.61-23.69-23.69-23.69ZM225.98,28.55h47.38v15.79h-47.38v-15.79h0ZM316.21,391.81l46.06,78.97h-225.2l46.06-78.97h27.05v23.69c0,4.36,3.54,7.9,7.9,7.9h63.18c4.36,0,7.9-3.54,7.9-7.9v-23.69h27.06ZM225.98,407.61v-47.38h47.38v47.38h-47.38ZM470.78,336.53c0,4.36-3.54,7.9-7.9,7.9H36.45c-4.36,0-7.9-3.54-7.9-7.9V68.04c0-4.36,3.54-7.9,7.9-7.9h426.43c4.36,0,7.9,3.54,7.9,7.9v268.5h0Z"/>
  <path class="cls-1" d="M68.04,75.93h-15.79c-4.36,0-7.9,3.54-7.9,7.9s3.54,7.9,7.9,7.9h15.79c4.36,0,7.9-3.54,7.9-7.9s-3.54-7.9-7.9-7.9Z"/>
  <path class="cls-1" d="M99.63,91.73h142.14c4.36,0,7.9-3.54,7.9-7.9s-3.54-7.9-7.9-7.9H99.63c-4.36,0-7.9,3.54-7.9,7.9s3.54,7.9,7.9,7.9Z"/>
  <path class="cls-1" d="M447.09,312.84h-15.79c-4.36,0-7.9,3.54-7.9,7.9s3.54,7.9,7.9,7.9h15.79c4.36,0,7.9-3.54,7.9-7.9,0-4.36-3.54-7.9-7.9-7.9Z"/>
  <path class="cls-1" d="M399.71,312.84h-142.14c-4.36,0-7.9,3.54-7.9,7.9s3.54,7.9,7.9,7.9h142.14c4.36,0,7.9-3.54,7.9-7.9,0-4.36-3.54-7.9-7.9-7.9Z"/>
  <path class="cls-1" d="M411.41,282.23l-69.11-38.01-.06-.05h-.08l-205-112.78-.09-.08h-.12l-41.42-22.78c-2.44-1.34-5.41-1.3-7.81.11-2.4,1.41-3.88,3.98-3.9,6.77v173.73c0,4.36,3.54,7.9,7.9,7.9h315.88c3.6,0,6.75-2.44,7.65-5.93.9-3.49-.68-7.14-3.84-8.88ZM99.63,128.75l22.11,12.19c-5.7,6.71-13.49,11.31-22.11,13.08v-25.27ZM99.63,281.25v-22.57c11.05,2.89,19.68,11.52,22.57,22.57h-22.57ZM321.24,281.25h-182.84c-3.39-19.84-18.93-35.38-38.77-38.77v-72.38c14.42-2.08,27.44-9.78,36.22-21.41l192.29,105.76c-3.72,8.51-6.05,17.56-6.89,26.8ZM337.03,281.25c.74-6.6,2.4-13.06,4.94-19.19l34.9,19.19h-39.83Z"/>
  <path class="cls-1" d="M407.61,99.63h-71.07c-4.36,0-7.9,3.54-7.9,7.9v86.87c0,4.36,3.54,7.9,7.9,7.9h71.07c4.36,0,7.9-3.54,7.9-7.9v-86.87c0-4.36-3.54-7.9-7.9-7.9ZM399.71,186.49h-55.28v-71.07h55.28v71.07Z"/>
</svg>